<?xml version="1.0" encoding="utf-8"?>
<svg version="1.0" width="75.000000pt" height="41.000000pt" viewBox="12.867 -8.883 59.394 60.343" preserveAspectRatio="xMidYMid meet" xmlns="http://www.w3.org/2000/svg" xmlns:bx="https://boxy-svg.com">
  <path d="M 43.066 -2.215 Q 49.512 -2.3 55.149 0.856 Q 60.813 4.027 64.139 9.618 Q 67.481 15.235 67.566 21.785 Q 67.651 28.365 64.428 34.118 Q 61.19 39.898 55.483 43.291 Q 49.75 46.7 43.066 46.785 Q 36.352 46.87 30.483 43.58 Q 24.587 40.275 21.127 34.452 Q 17.651 28.603 17.566 21.785 Q 17.481 14.937 20.838 8.952 Q 24.21 2.94 30.149 -0.587 Q 36.114 -4.13 43.066 -4.215 Q 50.048 -4.3 56.149 -0.876 Q 62.277 2.563 65.871 8.618 Q 69.481 14.699 69.566 21.785 Q 69.651 28.901 66.16 35.118 Q 62.654 41.362 56.483 45.023 Q 50.286 48.7 43.066 48.785 Q 35.816 48.87 29.483 45.312 Q 23.123 41.739 19.395 35.452 Q 15.651 29.139 15.566 21.785 Q 15.481 14.401 19.106 7.952 Q 22.746 1.476 29.149 -2.319 Q 35.578 -6.13 43.066 -6.215 Q 50.584 -6.3 57.149 -2.608 Q 63.741 1.099 67.603 7.618 Q 71.481 14.163 71.566 21.785 Q 71.651 29.437 67.892 36.118 Q 64.118 42.826 57.483 46.755 Q 50.822 50.7 43.066 50.785 Q 35.28 50.87 28.483 47.044 Q 21.659 43.203 17.663 36.452 Q 13.651 29.675 13.566 21.785 Q 13.481 13.865 17.374 6.952 Q 21.282 0.012 28.149 -4.051 Q 35.043 -8.13 43.066 -8.215 Q 42.811 -8.212 43.066 -8.215" style="stroke: rgb(0, 0, 0); fill: rgb(212, 171, 82);" bx:shape="spiral 43.066 21.785 24 30 0 1080 1@bf84ad3a"/>
  <path style="stroke: rgb(0, 0, 0); fill: rgb(255, 247, 0);" d="M 23.637 29.181 L 43.146 27.77 L 55.349 28.102 L 58.919 28.766 L 64.564 28.932 L 64.896 24.2 L 58.254 21.959 L 57.756 18.804 L 47.463 16.314 L 47.047 9.423 L 39.41 8.51 L 35.675 10.337 L 28.203 11.084 L 26.958 13.242 L 27.622 18.721 L 27.29 20.381 L 24.8 21.212 L 21.064 22.623 L 20.898 26.192 L 23.637 29.181 Z"/>
  <g transform="translate(0.000000,41.000000) scale(0.100000,-0.100000)" fill="#000000" stroke="none">
    <path d="M365 320 c-3 -5 -23 -10 -44 -10 -49 0 -65 -19 -57 -65 6 -30 4 -35 -11 -35 -29 0 -63 -29 -63 -54 0 -31 38 -50 87 -42 21 3 45 6 53 5 8 0 33 0 55 1 53 2 147 1 215 -2 l55 -3 0 35 c0 32 -3 35 -32 38 -23 2 -33 8 -33 21 0 28 -21 41 -66 41 -42 0 -43 1 -46 38 l-3 37 -52 3 c-28 2 -54 -2 -58 -8z m87 -11 c21 -11 21 -12 3 -25 -18 -14 -18 -14 1 -14 19 -1 19 -1 0 -15 -19 -15 -19 -15 5 -15 46 -1 104 -12 114 -22 7 -6 3 -14 -9 -24 -18 -13 -17 -14 21 -14 52 0 77 -25 48 -47 -23 -16 -74 -10 -90 11 -7 9 -15 10 -26 3 -19 -12 -72 -1 -64 13 3 6 1 10 -5 10 -7 0 -9 8 -5 20 4 11 3 20 -2 19 -4 -1 -18 -1 -31 0 -20 1 -22 5 -19 36 2 19 1 32 -3 30 -5 -3 -11 3 -14 12 -12 30 36 43 76 22z m-86 -24 c4 -8 1 -22 -5 -29 -8 -10 -9 -16 -1 -21 7 -4 7 -13 -1 -27 -10 -19 -9 -20 15 -16 26 5 56 -12 56 -32 0 -17 -42 -32 -68 -25 -33 8 -43 24 -31 47 5 10 7 18 4 18 -13 0 -30 -26 -30 -44 0 -10 -7 -23 -16 -29 -23 -14 -79 9 -79 34 0 22 12 30 49 31 28 1 29 3 24 37 -3 20 -7 38 -9 40 -2 2 1 10 7 18 16 18 78 17 85 -2z" style="filter: none; stroke-width: 0px; stroke-miterlimit: 1; paint-order: fill; fill-rule: evenodd;"/>
  </g>
</svg>